<?xml version="1.0" encoding="utf-8"?>
<!DOCTYPE svg PUBLIC "-//W3C//DTD SVG 1.1//EN" "http://www.w3.org/Graphics/SVG/1.1/DTD/svg11.dtd">
<svg version="1.1" xmlns="http://www.w3.org/2000/svg" xmlns:xlink="http://www.w3.org/1999/xlink" x="0px" y="0px" width="330px" height="132px" viewBox="0 0 330 132" enable-background="new 0 0 330 132" xml:space="preserve">
	<path clip-path="url(#SVGID_2_)" fill="#FFFFFF" d="M27.177,30.843c-9.339-4.478-15.316-16.118-13.308-23
		c1.623-5.559,6.957-6.737,16.717-4.57C40.345,5.44,49.311,14.3,49.311,14.3l5.79,0.565c0,0-1.987-1.862-2.988-2.685
		C50.931,11.208,39.037,1.623,28.297,0.304C18.799-0.863,4.95,1.669,4.996,2.189C5.042,2.707,5.09,2.896,5.603,3.321
		c0.514,0.423,0.374,0.8,0.094,2.073c-0.28,1.271-1.681,3.817-2.474,9.002c-0.794,5.182,0.793,7.775,0.793,7.775
		s1.889-0.291,2.986-0.33c1.373-0.05,5.418,0.047,9.855,3.817c5.138,4.367,4.576,11.123,4.576,11.123L43.1,37.63l1.728-2.264
		C44.501,35.461,37.461,35.773,27.177,30.843 M12.328,4.499c-0.42,0.8-4.25,5.232-4.531,5.561c-0.28,0.33-0.746,0.33-0.793-0.895
		C6.958,7.938,7.518,4.309,8.545,3.509c1.027-0.802,3.922-1.226,4.109-0.235C12.654,3.273,12.748,3.697,12.328,4.499"/>
	<path clip-path="url(#SVGID_2_)" fill="#FFFFFF" d="M3.735,25.895c1.401-1.319,1.494-2.168,0.841-2.733
		C3.922,22.594,2.5,23.904,1.728,25.14c-0.794,1.271-1.961,3.535-1.401,4.666C0.326,29.806,2.334,27.214,3.735,25.895"/>
	<path clip-path="url(#SVGID_2_)" fill="#FFFFFF" d="M22.375,11.633c-1.77-0.147-6.938-0.537-6.938-0.537v0.424
		c0,0,39.095,6.129,41.172,6.881c2.476,0.894,2.959,3.25,3.052,5.655c0.094,2.404,4.144,4.478,4.144,4.478
		s-1.499-2.592-1.967-3.394c-0.467-0.801-0.091-2.97-0.324-3.912c-0.233-0.942-0.831-3.11-3.212-4.335
		c-2.382-1.224-22.688-3.875-24.743-4.146C32.973,12.667,25.674,11.908,22.375,11.633"/>
	<path clip-path="url(#SVGID_2_)" fill="#FFFFFF" d="M17.932,34.951c0-4.996-4.014-9.048-8.966-9.048
		C4.013,25.903,0,29.955,0,34.951C0,39.948,4.013,44,8.965,44c2.138,0,4.098-0.758,5.639-2.019c4.465-1.404,6.454-4.87,6.454-4.87
		l-3.36-0.141C17.846,36.321,17.932,35.646,17.932,34.951 M8.965,41.172c-3.398,0-6.164-2.791-6.164-6.221
		c0-3.431,2.766-6.221,6.164-6.221c3.399,0,6.164,2.79,6.164,6.221C15.129,38.382,12.364,41.172,8.965,41.172"/>
	<path clip-path="url(#SVGID_2_)" fill="#FFFFFF" d="M56.035,25.903c-4.952,0-8.967,4.052-8.967,9.048
		c0,1.039,0.183,2.032,0.502,2.96h-3.677c0,0,5.694,4.636,8.588,5.35c0.003,0,0.005,0,0.009,0.001
		C53.578,43.736,54.775,44,56.035,44C60.986,44,65,39.948,65,34.951C65,29.955,60.986,25.903,56.035,25.903 M56.035,41.172
		c-3.399,0-6.164-2.791-6.164-6.221c0-3.431,2.765-6.221,6.164-6.221c3.397,0,6.163,2.79,6.163,6.221
		C62.198,38.382,59.433,41.172,56.035,41.172"/>

	<path clip-path="url(#SVGID_4_)" fill="#6CBBD5" d="M27.177,74.866c-9.339-4.494-15.316-16.174-13.308-23.08
		c1.623-5.579,6.958-6.761,16.717-4.586c9.759,2.175,18.725,11.065,18.725,11.065l5.79,0.567c0,0-1.987-1.868-2.988-2.694
		c-1.182-0.975-13.075-10.595-23.815-11.918C18.799,43.049,4.95,45.59,4.996,46.112c0.047,0.519,0.094,0.709,0.607,1.135
		c0.514,0.424,0.374,0.803,0.094,2.08c-0.28,1.276-1.681,3.831-2.474,9.034c-0.794,5.201,0.793,7.803,0.793,7.803
		s1.889-0.292,2.986-0.332c1.373-0.05,5.419,0.048,9.855,3.831c5.138,4.383,4.576,11.162,4.576,11.162L43.1,81.677l1.728-2.271
		C44.501,79.5,37.461,79.813,27.177,74.866 M12.328,48.429c-0.42,0.803-4.25,5.25-4.53,5.58c-0.28,0.332-0.746,0.332-0.793-0.898
		c-0.047-1.23,0.513-4.872,1.541-5.675c1.027-0.805,3.922-1.23,4.109-0.236C12.655,47.2,12.748,47.625,12.328,48.429"/>
	<path clip-path="url(#SVGID_4_)" fill="#6CBBD5" d="M3.735,69.899c1.401-1.323,1.494-2.175,0.841-2.742
		c-0.654-0.569-2.076,0.745-2.849,1.986c-0.794,1.274-1.961,3.546-1.401,4.682C0.326,73.825,2.334,71.224,3.735,69.899"/>
	<path clip-path="url(#SVGID_4_)" fill="#6CBBD5" d="M22.375,55.589c-1.77-0.147-6.938-0.539-6.938-0.539v0.425
		c0,0,39.095,6.151,41.172,6.906c2.476,0.897,2.959,3.262,3.052,5.674c0.094,2.413,4.144,4.494,4.144,4.494
		s-1.499-2.602-1.967-3.405c-0.467-0.805-0.091-2.98-0.324-3.926c-0.233-0.945-0.831-3.121-3.212-4.351
		c-2.382-1.229-22.688-3.889-24.743-4.161C32.973,56.626,25.673,55.865,22.375,55.589"/>
	<path clip-path="url(#SVGID_4_)" fill="#6CBBD5" d="M17.931,78.988c0-5.014-4.014-9.08-8.966-9.08S0,73.975,0,78.988
		c0,5.015,4.013,9.08,8.965,9.08c2.138,0,4.098-0.76,5.639-2.025c4.465-1.409,6.455-4.887,6.455-4.887l-3.361-0.142
		C17.845,80.363,17.931,79.687,17.931,78.988 M8.965,85.231c-3.398,0-6.164-2.8-6.164-6.243s2.766-6.243,6.164-6.243
		c3.399,0,6.164,2.8,6.164,6.243S12.364,85.231,8.965,85.231"/>
	<path clip-path="url(#SVGID_4_)" fill="#6CBBD5" d="M56.035,69.908c-4.952,0-8.967,4.066-8.967,9.08
		c0,1.042,0.183,2.039,0.502,2.971h-3.677c0,0,5.694,4.652,8.588,5.368c0.003,0,0.005,0.001,0.009,0.002
		c1.088,0.475,2.285,0.739,3.545,0.739c4.951,0,8.965-4.065,8.965-9.08C65,73.975,60.986,69.908,56.035,69.908 M56.035,85.231
		c-3.399,0-6.164-2.8-6.164-6.243s2.765-6.243,6.164-6.243c3.397,0,6.163,2.8,6.163,6.243S59.433,85.231,56.035,85.231"/>

	<path clip-path="url(#SVGID_6_)" fill="#74777E" d="M27.177,118.823c-9.339-4.465-15.316-16.071-13.308-22.934
		c1.623-5.543,6.958-6.719,16.717-4.558c9.759,2.161,18.725,10.996,18.725,10.996l5.79,0.563c0,0-1.987-1.856-2.988-2.678
		c-1.182-0.969-13.075-10.527-23.815-11.843c-9.499-1.164-23.348,1.362-23.302,1.88c0.047,0.517,0.094,0.705,0.607,1.129
		c0.514,0.421,0.374,0.798,0.094,2.066c-0.28,1.268-1.681,3.807-2.474,8.978c-0.794,5.167,0.793,7.753,0.793,7.753
		s1.889-0.29,2.986-0.329c1.373-0.05,5.419,0.047,9.855,3.807c5.138,4.354,4.576,11.091,4.576,11.091l21.667,0.847l1.728-2.257
		C44.501,123.428,37.461,123.74,27.177,118.823 M12.328,92.554c-0.42,0.798-4.25,5.217-4.53,5.545
		c-0.28,0.33-0.746,0.33-0.793-0.892c-0.047-1.223,0.513-4.842,1.541-5.64c1.027-0.8,3.922-1.223,4.109-0.235
		C12.655,91.332,12.748,91.755,12.328,92.554"/>
	<path clip-path="url(#SVGID_6_)" fill="#74777E" d="M3.735,113.889c1.401-1.314,1.494-2.161,0.841-2.725
		c-0.654-0.565-2.076,0.74-2.849,1.973c-0.794,1.268-1.961,3.524-1.401,4.653C0.326,117.79,2.334,115.205,3.735,113.889"/>
	<path clip-path="url(#SVGID_6_)" fill="#74777E" d="M22.375,99.669c-1.77-0.146-6.938-0.536-6.938-0.536v0.423
		c0,0,39.095,6.112,41.172,6.862c2.476,0.891,2.959,3.241,3.052,5.638c0.094,2.397,4.144,4.465,4.144,4.465
		s-1.499-2.584-1.967-3.384c-0.467-0.799-0.091-2.961-0.324-3.9s-0.831-3.102-3.212-4.323c-2.382-1.221-22.688-3.864-24.743-4.135
		C32.973,100.699,25.673,99.942,22.375,99.669"/>
	<path clip-path="url(#SVGID_6_)" fill="#74777E" d="M17.931,122.92c0-4.981-4.014-9.022-8.966-9.022S0,117.938,0,122.92
		c0,4.983,4.013,9.023,8.965,9.023c2.138,0,4.098-0.756,5.639-2.013c4.465-1.4,6.455-4.856,6.455-4.856l-3.361-0.141
		C17.845,124.286,17.931,123.614,17.931,122.92 M8.965,129.124c-3.398,0-6.164-2.783-6.164-6.204s2.766-6.203,6.164-6.203
		c3.399,0,6.164,2.782,6.164,6.203S12.364,129.124,8.965,129.124"/>
	<path clip-path="url(#SVGID_6_)" fill="#74777E" d="M56.035,113.897c-4.952,0-8.967,4.041-8.967,9.022
		c0,1.036,0.183,2.026,0.502,2.952h-3.677c0,0,5.694,4.623,8.588,5.334c0.003,0,0.005,0.001,0.009,0.002
		c1.088,0.472,2.285,0.735,3.545,0.735c4.951,0,8.965-4.04,8.965-9.023C65,117.938,60.986,113.897,56.035,113.897 M56.035,129.124
		c-3.399,0-6.164-2.783-6.164-6.204s2.765-6.203,6.164-6.203c3.397,0,6.163,2.782,6.163,6.203S59.433,129.124,56.035,129.124"/>

	<path clip-path="url(#SVGID_8_)" fill="#FFFFFF" d="M286.439,11.217c-1.809-0.149-4.805-0.543-4.805-0.543v0.429
		c0,0,37.664,6.206,39.786,6.966c2.529,0.906,3.025,3.293,3.121,5.726c0.096,2.435,4.235,4.533,4.235,4.533
		s-1.532-2.624-2.009-3.435c-0.478-0.813-0.093-3.008-0.332-3.961c-0.238-0.954-0.848-3.149-3.282-4.389
		c-2.433-1.242-23.184-3.925-25.285-4.201C297.271,12.264,289.81,11.495,286.439,11.217"/>
	<path clip-path="url(#SVGID_8_)" fill="#FFFFFF" d="M281.903,34.825c0-5.059-4.103-9.162-9.162-9.162s-9.161,4.104-9.161,9.162
		s4.102,9.161,9.161,9.161c2.185,0,4.187-0.767,5.763-2.044c4.563-1.423,6.596-4.93,6.596-4.93l-3.435-0.143
		C281.816,36.212,281.903,35.529,281.903,34.825 M272.741,41.123c-3.474,0-6.298-2.825-6.298-6.298s2.824-6.299,6.298-6.299
		s6.299,2.826,6.299,6.299S276.215,41.123,272.741,41.123"/>
	<path clip-path="url(#SVGID_8_)" fill="#FFFFFF" d="M320.839,25.663c-5.06,0-9.162,3.984-9.162,9.043
		c0,1.052,0.187,1.881,0.513,2.881h-3.758c0,0,5.819,4.811,8.776,5.532c0.004,0,0.006,0.061,0.009,0.062
		c1.111,0.479,2.335,0.775,3.622,0.775c5.06,0,9.161-4.087,9.161-9.146S325.898,25.663,320.839,25.663 M320.839,41.123
		c-3.473,0-6.299-2.825-6.299-6.298s2.826-6.299,6.299-6.299s6.298,2.826,6.298,6.299S324.312,41.123,320.839,41.123"/>
	<path clip-path="url(#SVGID_8_)" fill="#FFFFFF" d="M290.475,32.854c-2.814-2.673-11.538-15.634-10.928-22.182
		c0.354-3.821,1.928-8.534,6.181-8.347c6.019,0.266,14.45,2.132,19.517,5.48c5.629,3.719,8.724,6.684,8.724,6.684l5.916,0.572
		c0,0-7.444-7.313-18.167-12.032c-8.021-3.529-16.196-3.009-16.617-2.997c-0.422,0.012-4.471,0.191-6.152,0.441
		c-0.14,0.021-0.572,0.101-0.572,0.101s-3.309,0.358-4.93,0.636c-1.621,0.275-4.238,0.811-4.238,0.811s-1.101-0.019,0,1.291
		c0.535,0.637,0.654,0.996,0.194,2.172c-0.553,1.416-2.548,7.412-2.757,10.127c-0.182,2.38,0.262,5.232,0.745,6.378
		c-0.015,0.243-0.093,0.819-0.53,1.209c0,0,0-0.001-0.001,0c-0.549,0.415-1.114,1.063-1.513,1.694
		c-0.811,1.286-2.004,3.578-1.432,4.724c0,0,2.053-2.625,3.483-3.961c0.241-0.225,0.431-0.431,0.599-0.629
		c0.008-0.008,0.017-0.011,0.023-0.019c0.33-0.335,0.999-0.828,1.521-1.358c2.682-0.374,7.785,0.771,7.785,0.771
		s-2.09-1.114-3.058-1.408c-1.396-0.424-3.112-0.88-4.171-1.155c-0.432-1.112-1.862-4.868-0.88-8.118
		c0.239-0.798,0.514-2.153,0.798-2.153h2.637l0.383-1.258l-2.603-0.512c0.94-2.75,1.876-5.317,2.028-5.646
		c0.5-1.074,2.551-1.343,3.947-1.498c0.192-0.021,0.394-0.063,0.594-0.078c-1.809,3.008-3.892,8.211-3.967,9.809
		c-0.119,2.459,12.529,21.635,14.647,23.606c1.494,1.391,20.512,0.958,20.512,0.958s0.429-1.146,0.62-1.719
		C308.814,35.248,293.289,35.526,290.475,32.854"/>

	<path clip-path="url(#SVGID_10_)" fill="#6CBBD5" d="M286.439,55.223c-1.809-0.149-4.805-0.543-4.805-0.543v0.429
		c0,0,37.664,6.206,39.786,6.966c2.529,0.907,3.025,3.293,3.121,5.726c0.096,2.435,4.235,4.533,4.235,4.533
		s-1.532-2.624-2.009-3.435c-0.478-0.813-0.093-3.007-0.332-3.961c-0.238-0.954-0.848-3.149-3.282-4.389
		c-2.433-1.241-23.184-3.924-25.285-4.2C297.271,56.271,289.81,55.502,286.439,55.223"/>
	<path clip-path="url(#SVGID_10_)" fill="#6CBBD5" d="M281.903,78.832c0-5.059-4.103-9.162-9.162-9.162s-9.161,4.104-9.161,9.162
		s4.102,9.161,9.161,9.161c2.185,0,4.187-0.767,5.763-2.044c4.563-1.423,6.596-4.93,6.596-4.93l-3.435-0.143
		C281.816,80.219,281.903,79.536,281.903,78.832 M272.741,85.13c-3.474,0-6.298-2.825-6.298-6.298s2.824-6.299,6.298-6.299
		s6.299,2.826,6.299,6.299S276.215,85.13,272.741,85.13"/>
	<path clip-path="url(#SVGID_10_)" fill="#6CBBD5" d="M320.839,69.67c-5.06,0-9.162,3.984-9.162,9.043
		c0,1.052,0.187,1.881,0.513,2.881h-3.758c0,0,5.819,4.811,8.776,5.532c0.004,0,0.006,0.061,0.009,0.062
		c1.111,0.479,2.335,0.775,3.622,0.775c5.06,0,9.161-4.087,9.161-9.146S325.898,69.67,320.839,69.67 M320.839,85.13
		c-3.473,0-6.299-2.825-6.299-6.298s2.826-6.299,6.299-6.299s6.298,2.826,6.298,6.299S324.312,85.13,320.839,85.13"/>
	<path clip-path="url(#SVGID_10_)" fill="#6CBBD5" d="M290.475,76.861c-2.814-2.673-11.538-15.634-10.928-22.182
		c0.354-3.822,1.928-8.535,6.181-8.347c6.019,0.266,14.45,2.132,19.517,5.48c5.629,3.719,8.724,6.684,8.724,6.684l5.916,0.572
		c0,0-7.444-7.313-18.167-12.032c-8.021-3.529-16.196-3.009-16.617-2.997c-0.422,0.012-4.471,0.191-6.152,0.442
		c-0.14,0.021-0.572,0.1-0.572,0.1s-3.309,0.359-4.93,0.636c-1.621,0.275-4.238,0.811-4.238,0.811s-1.101-0.019,0,1.291
		c0.535,0.636,0.654,0.996,0.194,2.171c-0.553,1.416-2.548,7.413-2.757,10.127c-0.182,2.38,0.262,5.232,0.745,6.378
		c-0.015,0.243-0.093,0.82-0.53,1.209c0,0,0-0.001-0.001,0c-0.549,0.415-1.114,1.063-1.513,1.694
		c-0.811,1.286-2.004,3.578-1.432,4.724c0,0,2.053-2.625,3.483-3.961c0.241-0.225,0.431-0.431,0.599-0.629
		c0.008-0.008,0.017-0.011,0.023-0.019c0.33-0.335,0.999-0.828,1.521-1.358c2.682-0.374,7.785,0.771,7.785,0.771
		s-2.09-1.114-3.058-1.408c-1.396-0.424-3.112-0.88-4.171-1.155c-0.432-1.113-1.862-4.869-0.88-8.119
		c0.239-0.798,0.514-2.153,0.798-2.153h2.637l0.383-1.258l-2.603-0.511c0.94-2.751,1.876-5.318,2.028-5.647
		c0.5-1.074,2.551-1.343,3.947-1.498c0.192-0.022,0.394-0.063,0.594-0.079c-1.809,3.009-3.892,8.211-3.967,9.809
		c-0.119,2.46,12.529,21.635,14.647,23.607c1.494,1.391,20.512,0.958,20.512,0.958s0.429-1.146,0.62-1.719
		C308.814,79.255,293.289,79.533,290.475,76.861"/>

	<path clip-path="url(#SVGID_12_)" fill="#74777E" d="M286.439,99.229c-1.809-0.148-4.805-0.543-4.805-0.543v0.43
		c0,0,37.664,6.206,39.786,6.966c2.529,0.906,3.025,3.293,3.121,5.726c0.096,2.435,4.235,4.533,4.235,4.533
		s-1.532-2.624-2.009-3.435c-0.478-0.813-0.093-3.008-0.332-3.961c-0.238-0.954-0.848-3.149-3.282-4.389
		c-2.433-1.242-23.184-3.925-25.285-4.2C297.271,100.277,289.81,99.508,286.439,99.229"/>
	<path clip-path="url(#SVGID_12_)" fill="#74777E" d="M281.903,122.838c0-5.059-4.103-9.162-9.162-9.162s-9.161,4.104-9.161,9.162
		s4.102,9.161,9.161,9.161c2.185,0,4.187-0.767,5.763-2.044c4.563-1.423,6.596-4.93,6.596-4.93l-3.435-0.143
		C281.816,124.225,281.903,123.542,281.903,122.838 M272.741,129.136c-3.474,0-6.298-2.825-6.298-6.298s2.824-6.299,6.298-6.299
		s6.299,2.826,6.299,6.299S276.215,129.136,272.741,129.136"/>
	<path clip-path="url(#SVGID_12_)" fill="#74777E" d="M320.839,113.676c-5.06,0-9.162,3.984-9.162,9.043
		c0,1.052,0.187,1.881,0.513,2.881h-3.758c0,0,5.819,4.811,8.776,5.532c0.004,0,0.006,0.061,0.009,0.062
		c1.111,0.479,2.335,0.775,3.622,0.775c5.06,0,9.161-4.087,9.161-9.146S325.898,113.676,320.839,113.676 M320.839,129.136
		c-3.473,0-6.299-2.825-6.299-6.298s2.826-6.299,6.299-6.299s6.298,2.826,6.298,6.299S324.312,129.136,320.839,129.136"/>
	<path clip-path="url(#SVGID_12_)" fill="#74777E" d="M290.475,120.867c-2.814-2.673-11.538-15.634-10.928-22.182
		c0.354-3.822,1.928-8.535,6.181-8.347c6.019,0.266,14.45,2.132,19.517,5.479c5.629,3.719,8.724,6.685,8.724,6.685l5.916,0.572
		c0,0-7.444-7.313-18.167-12.032c-8.021-3.529-16.196-3.01-16.617-2.997c-0.422,0.012-4.471,0.19-6.152,0.442
		c-0.14,0.021-0.572,0.1-0.572,0.1s-3.309,0.359-4.93,0.636c-1.621,0.274-4.238,0.812-4.238,0.812s-1.101-0.02,0,1.291
		c0.535,0.636,0.654,0.996,0.194,2.17c-0.553,1.416-2.548,7.414-2.757,10.128c-0.182,2.38,0.262,5.232,0.745,6.378
		c-0.015,0.243-0.093,0.819-0.53,1.209c0,0,0-0.001-0.001,0c-0.549,0.415-1.114,1.063-1.513,1.694
		c-0.811,1.286-2.004,3.578-1.432,4.724c0,0,2.053-2.625,3.483-3.961c0.241-0.225,0.431-0.431,0.599-0.629
		c0.008-0.008,0.017-0.011,0.023-0.019c0.33-0.335,0.999-0.828,1.521-1.358c2.682-0.374,7.785,0.771,7.785,0.771
		s-2.09-1.114-3.058-1.408c-1.396-0.424-3.112-0.88-4.171-1.155c-0.432-1.112-1.862-4.868-0.88-8.118
		c0.239-0.799,0.514-2.153,0.798-2.153h2.637l0.383-1.258l-2.603-0.511c0.94-2.752,1.876-5.318,2.028-5.647
		c0.5-1.073,2.551-1.343,3.947-1.498c0.192-0.022,0.394-0.063,0.594-0.079c-1.809,3.01-3.892,8.211-3.967,9.809
		c-0.119,2.461,12.529,21.636,14.647,23.607c1.494,1.391,20.512,0.958,20.512,0.958s0.429-1.146,0.62-1.719
		C308.814,123.261,293.289,123.539,290.475,120.867"/>

	<path clip-path="url(#SVGID_14_)" fill="#FFFFFF" d="M139.395,14.51c-1.813-1.507-13.705-9.358-26.201-12.472
		c-12.496-3.112-27.611-1.917-30.736-1.212c-3.124,0.702-7.557,1.3-7.557,1.3s-1.613,0.199-2.016,1.503
		c-0.403,1.305-3.527,12.25-3.527,12.25s-0.202,1.908,1.209,1.908c1.411,0,9.876,1.907,13.302,4.918
		c3.427,3.014,6.047,11.138,6.147,11.941c0.101,0.804,0.504,2.603,2.016,2.603h35.673c0,0,1.916,0.109,3.225-1.195
		c1.31-1.307,9.17-18.472,9.17-18.472S141.209,16.017,139.395,14.51 M134.659,20.798c-0.304,1.708-2.621,8.034-4.333,10.846
		c-1.714,2.811-3.428,2.109-3.428,2.109l-16.224-0.603c0,0-7.961-0.1-12.597-0.704c-4.636-0.602-5.442-3.815-5.442-3.815
		s-7.658-13.758-9.17-17.473c-1.512-3.715-0.302-5.724,1.411-6.829c1.713-1.104,8.263-2.31,20.014-1.306
		c11.752,1.003,23.923,7.731,27.752,10.845C136.472,16.981,134.961,19.092,134.659,20.798"/>
	<path clip-path="url(#SVGID_14_)" fill="#FFFFFF" d="M164.993,35.462c-1.008-0.402-0.601-2.708-0.601-2.708
		s0.813-4.312,1.114-7.162c0.302-2.849-1.296-4.166-1.296-4.166s-0.884-0.981-6.023-2.937c-5.139-1.956-12.343-2.913-12.343-2.913
		s13.806,5.058,15.821,6.465c2.016,1.405,1.813,3.613,1.813,3.613s-0.381,3.99-0.986,6.2c-0.604,2.209-2.138,2.381-2.138,2.381
		h-2.844c0.007,0,0.023-0.352,0.023-0.509c0-5.685-4.625-10.314-10.329-10.314c-5.705,0-10.33,4.64-10.33,10.324
		c0,1.223,0.226,2.307,0.618,3.511h-5.456c1.857,3.013,7.411,4.039,8.279,4.135c1.829,1.635,4.238,2.618,6.889,2.618
		c4.242,0,7.884-2.561,9.474-6.205c2.195-0.103,8.169-0.428,8.854-0.894C166.379,36.329,166.002,35.864,164.993,35.462
		 M147.205,41.569c-4.362,0-7.911-3.537-7.911-7.884c0-4.346,3.549-7.881,7.911-7.881c4.361,0,7.91,3.535,7.91,7.881
		C155.115,38.033,151.566,41.569,147.205,41.569"/>
	<path clip-path="url(#SVGID_14_)" fill="#FFFFFF" d="M65.629,29.033c0,0,1.209-1.606,1.209-3.013s-1.007-2.612,0.202-3.916
		c1.209-1.306,2.318-1.708,3.023-1.808c0.706-0.099,3.426-0.401,3.426-0.401s-2.116-0.803-3.023-1.005
		c-0.907-0.199-1.512,0.101-2.62,1.005c-1.108,0.903-1.915,1.707-1.915,1.707s-1.108,0.469-0.906,2.695
		c0.201,2.225,0.503,2.225,0.604,3.028S65.629,29.033,65.629,29.033"/>
	<path clip-path="url(#SVGID_14_)" fill="#FFFFFF" d="M107.737,12.888l-4.419-7.556l2.395,7.482
		c-7.877-0.263-18.6-0.355-19.553-0.437c0.115,0.116-0.054,0.739-0.054,0.739s25.213,1.16,27.715,1.456
		c4.232,0.502,19.271,2.209,19.271,2.209v-0.703c0,0-18.56-2.857-23.675-3.112C108.881,12.939,108.334,12.913,107.737,12.888"/>
	<path clip-path="url(#SVGID_14_)" fill="#FFFFFF" d="M86.086,12.363c-0.015,0.005,0.019,0.009,0.075,0.015
		C86.143,12.36,86.119,12.353,86.086,12.363"/>
	<path clip-path="url(#SVGID_14_)" fill="#FFFFFF" d="M86.188,33.727c0-5.685-4.625-10.314-10.33-10.314s-10.329,4.6-10.329,10.284
		c0,5.685,4.624,10.289,10.329,10.289c3.036,0,5.756-1.315,7.646-3.393c1.019-0.043,2.844-0.16,3.691-0.723
		c1.209-0.804,2.822-3.225,2.822-3.225H85.77C86.037,35.44,86.188,34.727,86.188,33.727 M75.857,41.569
		c-4.362,0-7.911-3.537-7.911-7.884c0-4.346,3.549-7.881,7.911-7.881s7.911,3.535,7.911,7.881
		C83.769,38.033,80.219,41.569,75.857,41.569"/>
	<path clip-path="url(#SVGID_14_)" fill="#FFFFFF" d="M142.77,14.924l1.412-0.753c0,0-3.486-2.281-5.413-3.271
		c-3.26-1.676-16.656-7.073-16.656-7.073s7.054,3.314,10.682,5.122C136.421,10.756,142.77,14.924,142.77,14.924"/>

	<path clip-path="url(#SVGID_16_)" fill="#6CBBD5" d="M139.395,58.475c-1.814-1.512-13.706-9.391-26.201-12.516
		c-12.496-3.123-27.611-1.924-30.736-1.217c-3.124,0.705-7.557,1.305-7.557,1.305s-1.613,0.199-2.016,1.509
		s-3.527,12.293-3.527,12.293s-0.202,1.914,1.209,1.914c1.411,0,9.876,1.914,13.302,4.937c3.427,3.023,6.047,11.177,6.147,11.982
		c0.101,0.807,0.504,2.611,2.016,2.611h35.673c0,0,1.916,0.111,3.225-1.199c1.309-1.311,9.17-18.537,9.17-18.537
		S141.209,59.987,139.395,58.475 M134.658,64.786c-0.303,1.714-2.621,8.062-4.333,10.884c-1.714,2.82-3.428,2.117-3.428,2.117
		l-16.224-0.605c0,0-7.961-0.102-12.597-0.707c-4.636-0.604-5.442-3.828-5.442-3.828s-7.658-13.806-9.17-17.535
		c-1.512-3.729-0.302-5.744,1.411-6.853c1.713-1.108,8.263-2.318,20.014-1.31c11.752,1.006,23.923,7.758,27.752,10.883
		C136.471,60.956,134.961,63.073,134.658,64.786"/>
	<path clip-path="url(#SVGID_16_)" fill="#6CBBD5" d="M164.994,79.502c-1.01-0.404-0.602-2.719-0.602-2.719
		s0.813-4.326,1.113-7.186c0.303-2.86-1.295-4.181-1.295-4.181s-0.885-0.984-6.023-2.947s-12.344-2.924-12.344-2.924
		s13.807,5.076,15.822,6.487c2.016,1.411,1.813,3.627,1.813,3.627s-0.381,4.004-0.986,6.221c-0.604,2.217-2.139,2.389-2.139,2.389
		h-2.844c0.008,0,0.023-0.352,0.023-0.51c0-5.705-4.625-10.35-10.328-10.35c-5.705,0-10.33,4.656-10.33,10.359
		c0,1.227,0.225,2.314,0.617,3.523h-5.455c1.857,3.023,7.41,4.051,8.279,4.148c1.828,1.641,4.238,2.627,6.889,2.627
		c4.242,0,7.883-2.57,9.473-6.227c2.195-0.104,8.17-0.428,8.855-0.896C166.379,80.371,166.002,79.904,164.994,79.502
		 M147.205,85.629c-4.363,0-7.912-3.549-7.912-7.91s3.549-7.91,7.912-7.91c4.361,0,7.91,3.549,7.91,7.91
		S151.566,85.629,147.205,85.629"/>
	<path clip-path="url(#SVGID_16_)" fill="#6CBBD5" d="M65.628,73.049c0,0,1.209-1.611,1.209-3.023c0-1.41-1.007-2.621,0.202-3.929
		c1.209-1.311,2.318-1.715,3.023-1.814c0.706-0.1,3.426-0.402,3.426-0.402s-2.116-0.807-3.023-1.009
		c-0.907-0.2-1.512,0.101-2.62,1.009c-1.108,0.906-1.915,1.713-1.915,1.713s-1.108,0.471-0.906,2.705
		c0.201,2.232,0.503,2.232,0.604,3.039S65.628,73.049,65.628,73.049"/>
	<path clip-path="url(#SVGID_16_)" fill="#6CBBD5" d="M107.737,56.848l-4.419-7.582l2.395,7.508
		c-7.878-0.264-18.6-0.356-19.553-0.438c0.115,0.116-0.054,0.741-0.054,0.741s25.213,1.164,27.715,1.461
		c4.232,0.504,19.271,2.217,19.271,2.217v-0.705c0,0-18.559-2.867-23.675-3.123C108.88,56.899,108.334,56.873,107.737,56.848"/>
	<path clip-path="url(#SVGID_16_)" fill="#6CBBD5" d="M86.085,56.321c-0.015,0.005,0.019,0.01,0.075,0.016
		C86.143,56.318,86.119,56.31,86.085,56.321"/>
	<path clip-path="url(#SVGID_16_)" fill="#6CBBD5" d="M86.187,77.76c0-5.705-4.625-10.35-10.33-10.35s-10.329,4.615-10.329,10.318
		c0,5.705,4.624,10.326,10.329,10.326c3.036,0,5.756-1.32,7.646-3.404c1.019-0.045,2.844-0.162,3.691-0.727
		c1.209-0.807,2.822-3.236,2.822-3.236h-4.247C86.036,79.479,86.187,78.764,86.187,77.76 M75.857,85.629
		c-4.362,0-7.911-3.549-7.911-7.91s3.549-7.91,7.911-7.91s7.911,3.549,7.911,7.91S80.219,85.629,75.857,85.629"/>
	<path clip-path="url(#SVGID_16_)" fill="#6CBBD5" d="M142.77,58.891l1.412-0.756c0,0-3.486-2.289-5.414-3.283
		c-3.26-1.682-16.656-7.098-16.656-7.098s7.054,3.326,10.681,5.141C136.42,54.708,142.77,58.891,142.77,58.891"/>

	<path clip-path="url(#SVGID_18_)" fill="#74777E" d="M139.395,102.629c-1.813-1.512-13.705-9.391-26.201-12.516
		c-12.496-3.123-27.611-1.924-30.736-1.217c-3.124,0.705-7.557,1.305-7.557,1.305s-1.613,0.199-2.016,1.509
		s-3.527,12.293-3.527,12.293s-0.202,1.914,1.209,1.914c1.411,0,9.876,1.914,13.302,4.937c3.427,3.023,6.047,11.177,6.147,11.982
		c0.101,0.807,0.504,2.611,2.016,2.611h35.673c0,0,1.916,0.11,3.225-1.199c1.31-1.312,9.17-18.537,9.17-18.537
		S141.209,104.141,139.395,102.629 M134.659,108.939c-0.304,1.714-2.621,8.063-4.333,10.884c-1.714,2.821-3.428,2.117-3.428,2.117
		l-16.224-0.605c0,0-7.961-0.101-12.597-0.706c-4.636-0.604-5.442-3.829-5.442-3.829s-7.658-13.806-9.17-17.534
		c-1.512-3.729-0.302-5.744,1.411-6.853c1.713-1.108,8.263-2.318,20.014-1.31c11.752,1.006,23.923,7.758,27.752,10.883
		C136.472,105.109,134.961,107.227,134.659,108.939"/>
	<path clip-path="url(#SVGID_18_)" fill="#74777E" d="M164.994,123.655c-1.009-0.403-0.602-2.718-0.602-2.718
		s0.813-4.327,1.113-7.187c0.303-2.859-1.295-4.181-1.295-4.181s-0.884-0.984-6.023-2.947c-5.139-1.963-12.343-2.924-12.343-2.924
		s13.806,5.076,15.821,6.487s1.813,3.627,1.813,3.627s-0.381,4.004-0.986,6.221c-0.604,2.218-2.138,2.39-2.138,2.39h-2.844
		c0.007,0,0.023-0.353,0.023-0.511c0-5.704-4.625-10.35-10.329-10.35c-5.705,0-10.33,4.656-10.33,10.359
		c0,1.228,0.226,2.314,0.618,3.523h-5.456c1.857,3.023,7.411,4.052,8.279,4.149c1.829,1.641,4.238,2.627,6.889,2.627
		c4.242,0,7.884-2.57,9.474-6.227c2.195-0.104,8.169-0.429,8.854-0.896C166.379,124.525,166.002,124.059,164.994,123.655
		 M147.205,129.783c-4.362,0-7.911-3.549-7.911-7.911c0-4.361,3.549-7.909,7.911-7.909c4.361,0,7.91,3.548,7.91,7.909
		C155.115,126.234,151.566,129.783,147.205,129.783"/>
	<path clip-path="url(#SVGID_18_)" fill="#74777E" d="M65.629,117.203c0,0,1.209-1.612,1.209-3.023s-1.007-2.621,0.202-3.93
		c1.209-1.311,2.318-1.715,3.023-1.814c0.706-0.1,3.426-0.402,3.426-0.402s-2.116-0.807-3.023-1.009
		c-0.907-0.2-1.512,0.101-2.62,1.009c-1.108,0.906-1.915,1.713-1.915,1.713s-1.108,0.471-0.906,2.704
		c0.201,2.233,0.503,2.233,0.604,3.039C65.73,116.296,65.629,117.203,65.629,117.203"/>
	<path clip-path="url(#SVGID_18_)" fill="#74777E" d="M107.737,101.002l-4.419-7.582l2.395,7.508
		c-7.878-0.264-18.6-0.356-19.553-0.438c0.115,0.116-0.054,0.741-0.054,0.741s25.213,1.164,27.715,1.461
		c4.232,0.504,19.271,2.217,19.271,2.217v-0.705c0,0-18.56-2.867-23.675-3.123C108.88,101.053,108.334,101.026,107.737,101.002"/>
	<path clip-path="url(#SVGID_18_)" fill="#74777E" d="M86.086,100.475c-0.015,0.005,0.019,0.01,0.075,0.016
		C86.143,100.472,86.119,100.464,86.086,100.475"/>
	<path clip-path="url(#SVGID_18_)" fill="#74777E" d="M86.188,121.913c0-5.704-4.625-10.35-10.33-10.35
		s-10.329,4.615-10.329,10.319c0,5.705,4.624,10.325,10.329,10.325c3.036,0,5.756-1.32,7.646-3.404
		c1.019-0.044,2.844-0.161,3.691-0.726c1.209-0.807,2.822-3.236,2.822-3.236H85.77C86.037,123.633,86.188,122.917,86.188,121.913
		 M75.857,129.783c-4.362,0-7.911-3.549-7.911-7.911c0-4.361,3.549-7.909,7.911-7.909s7.911,3.548,7.911,7.909
		C83.769,126.234,80.219,129.783,75.857,129.783"/>
	<path clip-path="url(#SVGID_18_)" fill="#74777E" d="M142.77,103.045l1.412-0.756c0,0-3.486-2.289-5.413-3.283
		c-3.26-1.682-16.656-7.098-16.656-7.098s7.054,3.326,10.682,5.141C136.421,98.862,142.77,103.045,142.77,103.045"/>

	<path clip-path="url(#SVGID_20_)" fill="#FFFFFF" d="M260.383,18.257c-1.09-0.873-7.203-6.405-12.078-6.769
		c-4.877-0.364-8.732,0.946-8.732,0.946s-0.875-0.654-3.275-0.727c-2.402-0.073-6.332-1.236-9.17-2.837s-9.678-6.694-18.41-8.222
		c-8.733-1.528-23.577,0.075-26.271,0.439c-2.692,0.364-8.149,1.896-8.878,2.115c-0.727,0.218-0.436,1.318-0.727,1.973
		c-0.291,0.655-1.674,0.819-2.184,2.129s0.291,3.748-0.146,4.984c-0.437,1.238-1.601,1.134-2.693,2.152
		c-1.091,1.019-1.091,4.772-1.091,4.772h0.654c0,0,0.511-2.205,1.093-3.298c0.582-1.091,2.11-1.604,3.274-2.549
		c1.164-0.946,1.019-3.031,1.019-3.031s1.165,0.691,2.11,0.109c0.945-0.582,1.164-1.71,1.164-1.71h7.606V6.905
		c0,0-4.896,0.363-6.713,0.218c-1.819-0.146-1.976-0.509-1.612-1.382c0.364-0.874,1.014-1.456,2.834-2.475
		c1.819-1.019,5.602-1.382,7.93-1.455c2.328-0.073,1.162,1.528,1.162,1.528s0.291-0.801-1.092,2.402
		c-1.383,3.201-0.146,7.349-0.146,7.349s6.476,11.134,8.296,14.045c1.818,2.911,4.074,2.475,4.074,2.475s29.471,0.51,30.127,0.145
		c0.656-0.363,2.256-1.237,1.82-2.183c-0.438-0.946-4.076-0.946-4.076-0.946s-10.406-1.018-17.392-1.528
		c-6.985-0.509-9.752-3.771-9.752-3.771s-5.603-8.526-6.84-10.418s-0.8-4.584-0.8-4.584s1.383-4.439,2.037-4.73
		c0.654-0.292,5.677-0.656,12.443,0.072c6.769,0.728,15.865,6.331,16.738,7.35s-0.51,1.237-1.82,1.237
		c-1.309,0-26.416-2.11-26.416-2.11l-0.291,1.164c0,0,15.646,1.092,18.702,1.31c3.058,0.218,19.503,2.547,20.667,2.547
		s1.602,0.365,1.164,0.947c-0.436,0.582-1.965,1.893-1.965,1.893s2.475-0.871,4.002-1.526c1.529-0.654,4.877-0.723,6.551-1.232
		c1.674-0.51,4.584-0.355,7.932,0.882c3.348,1.237,6.986,4.457,8.004,5.403c1.02,0.946,0.582,1.929,0.291,2.947
		s-0.945,4.263-1.309,5.791c-0.365,1.527-1.82,2.006-1.82,2.006h-0.367c0.451-1.164,0.709-2.482,0.709-3.814
		c0-5.781-4.67-10.488-10.432-10.488s-10.432,4.717-10.432,10.498c0,1.332,0.258,2.641,0.711,3.805h-6.387
		c0,0,1.02,2.433,3.785,3.523c1.746,0.69,4.188,0.779,5.75,0.767c1.795,1.463,4.08,2.332,6.572,2.332
		c3.951,0,7.389-2.21,9.158-5.461c1.055-0.033,2.441-0.102,3.334-0.224c1.6-0.218,1.891-0.946,1.674-1.966
		c-0.219-1.018,0.072-2.038,0.145-3.42c0.072-1.383,0.947-3.421,1.311-4.804S261.475,19.129,260.383,18.257 M246.291,33.974
		c-4.146,0-7.521-3.39-7.521-7.557s3.375-7.556,7.521-7.556s7.521,3.389,7.521,7.556S250.438,33.974,246.291,33.974"/>
	<path clip-path="url(#SVGID_20_)" fill="#FFFFFF" d="M186.863,26.46c0-5.781-4.671-10.489-10.431-10.489
		c-5.763,0-10.433,4.676-10.433,10.457c0,5.782,4.67,10.463,10.433,10.463c2.533,0,4.854-0.91,6.661-2.417
		c1.958,0.051,5.518,0.048,7.357-0.82c2.619-1.236,4.147-3.38,4.221-3.38h-8.518C186.604,29.109,186.863,27.792,186.863,26.46
		 M168.912,26.418c0-4.167,3.373-7.558,7.521-7.558c4.146,0,7.521,3.391,7.521,7.558s-3.375,7.557-7.521,7.557
		C172.285,33.975,168.912,30.585,168.912,26.418"/>

	<path clip-path="url(#SVGID_22_)" fill="#6CBBD5" d="M260.383,55.153c-1.091-0.873-7.204-6.404-12.079-6.769
		c-4.876-0.364-8.732,0.946-8.732,0.946s-0.874-0.654-3.275-0.728s-6.331-1.235-9.169-2.837s-9.679-6.694-18.411-8.222
		c-8.733-1.528-23.577,0.075-26.271,0.439c-2.691,0.364-8.149,1.896-8.877,2.115c-0.728,0.218-0.437,1.318-0.728,1.973
		c-0.291,0.655-1.674,0.819-2.184,2.129c-0.509,1.311,0.291,3.748-0.146,4.984c-0.437,1.238-1.601,1.134-2.693,2.152
		c-1.09,1.019-1.09,4.771-1.09,4.771h0.654c0,0,0.51-2.205,1.092-3.298c0.582-1.091,2.11-1.604,3.274-2.549
		c1.164-0.946,1.019-3.031,1.019-3.031s1.166,0.69,2.11,0.108c0.946-0.581,1.165-1.709,1.165-1.709h7.605v-1.829
		c0,0-4.895,0.362-6.713,0.218c-1.819-0.146-1.975-0.509-1.611-1.382c0.363-0.874,1.014-1.456,2.833-2.476
		c1.819-1.019,5.602-1.381,7.93-1.455c2.329-0.073,1.163,1.528,1.163,1.528s0.291-0.801-1.092,2.402
		c-1.383,3.2-0.146,7.349-0.146,7.349s6.477,11.134,8.297,14.045c1.818,2.911,4.074,2.475,4.074,2.475s29.471,0.51,30.127,0.145
		c0.655-0.363,2.256-1.237,1.819-2.183c-0.437-0.946-4.075-0.946-4.075-0.946s-10.406-1.018-17.393-1.528
		c-6.985-0.509-9.752-3.771-9.752-3.771s-5.602-8.526-6.84-10.418c-1.236-1.892-0.799-4.584-0.799-4.584s1.383-4.439,2.037-4.73
		c0.654-0.292,5.676-0.656,12.443,0.072s15.864,6.331,16.737,7.351c0.873,1.019-0.51,1.236-1.819,1.236s-26.416-2.109-26.416-2.109
		l-0.291,1.164c0,0,15.646,1.092,18.701,1.31c3.058,0.218,19.503,2.547,20.668,2.547c1.164,0,1.601,0.365,1.164,0.946
		c-0.437,0.582-1.965,1.894-1.965,1.894s2.475-0.87,4.002-1.526c1.528-0.653,4.876-0.723,6.55-1.231
		c1.674-0.511,4.584-0.354,7.932,0.882c3.348,1.237,6.986,4.457,8.005,5.403s0.582,1.929,0.291,2.947s-0.946,4.263-1.31,5.791
		c-0.364,1.527-1.819,2.006-1.819,2.006h-0.368c0.451-1.164,0.709-2.482,0.709-3.814c0-5.781-4.67-10.487-10.431-10.487
		c-5.762,0-10.432,4.717-10.432,10.497c0,1.332,0.258,2.641,0.71,3.805h-6.386c0,0,1.019,2.433,3.784,3.523
		c1.746,0.69,4.188,0.779,5.751,0.767c1.794,1.463,4.079,2.332,6.572,2.332c3.951,0,7.388-2.21,9.158-5.461
		c1.055-0.033,2.441-0.102,3.333-0.224c1.601-0.218,1.892-0.946,1.674-1.966c-0.219-1.018,0.072-2.038,0.146-3.42
		c0.072-1.383,0.946-3.421,1.31-4.804C262.275,56.535,261.475,56.025,260.383,55.153 M246.291,70.87
		c-4.147,0-7.521-3.39-7.521-7.557s3.374-7.556,7.521-7.556c4.146,0,7.521,3.389,7.521,7.556S250.437,70.87,246.291,70.87"/>
	<path clip-path="url(#SVGID_22_)" fill="#6CBBD5" d="M186.862,63.356c0-5.781-4.671-10.489-10.431-10.489
		c-5.762,0-10.432,4.676-10.432,10.457c0,5.782,4.67,10.463,10.432,10.463c2.533,0,4.854-0.91,6.662-2.417
		c1.957,0.051,5.518,0.048,7.357-0.82c2.619-1.236,4.146-3.38,4.221-3.38h-8.519C186.604,66.005,186.862,64.688,186.862,63.356
		 M168.911,63.314c0-4.167,3.373-7.558,7.521-7.558c4.146,0,7.521,3.391,7.521,7.558s-3.374,7.557-7.521,7.557
		C172.284,70.871,168.911,67.481,168.911,63.314"/>

	<path clip-path="url(#SVGID_24_)" fill="#74777E" d="M260.383,92.122c-1.091-0.877-7.204-6.43-12.079-6.795
		c-4.876-0.366-8.732,0.949-8.732,0.949s-0.874-0.656-3.275-0.73c-2.401-0.073-6.331-1.24-9.169-2.848
		c-2.838-1.609-9.679-6.72-18.411-8.255c-8.733-1.534-23.577,0.076-26.271,0.44c-2.691,0.366-8.149,1.904-8.877,2.124
		c-0.728,0.219-0.437,1.323-0.728,1.98s-1.674,0.822-2.184,2.138c-0.509,1.315,0.291,3.762-0.146,5.004s-1.601,1.138-2.693,2.161
		c-1.09,1.022-1.09,4.789-1.09,4.789h0.654c0,0,0.51-2.213,1.092-3.311c0.582-1.095,2.11-1.61,3.274-2.559
		c1.164-0.949,1.019-3.043,1.019-3.043s1.166,0.693,2.11,0.108c0.946-0.583,1.165-1.717,1.165-1.717h7.605v-1.835
		c0,0-4.895,0.363-6.713,0.219c-1.819-0.147-1.975-0.51-1.611-1.388c0.363-0.877,1.014-1.461,2.833-2.484s5.602-1.387,7.93-1.463
		c2.329-0.071,1.163,1.536,1.163,1.536s0.291-0.806-1.092,2.411c-1.383,3.212-0.146,7.379-0.146,7.379s6.477,11.177,8.297,14.1
		c1.818,2.922,4.074,2.484,4.074,2.484s29.471,0.512,30.127,0.145c0.655-0.364,2.256-1.242,1.819-2.19
		c-0.437-0.951-4.075-0.951-4.075-0.951s-10.406-1.021-17.393-1.534c-6.985-0.511-9.752-3.786-9.752-3.786s-5.602-8.561-6.84-10.46
		c-1.236-1.897-0.799-4.602-0.799-4.602s1.383-4.455,2.037-4.748c0.654-0.294,5.676-0.658,12.443,0.072s15.864,6.355,16.737,7.38
		c0.873,1.022-0.51,1.24-1.819,1.24s-26.416-2.117-26.416-2.117l-0.291,1.169c0,0,15.646,1.096,18.701,1.313
		c3.058,0.219,19.503,2.558,20.668,2.558c1.164,0,1.601,0.367,1.164,0.95c-0.437,0.584-1.965,1.901-1.965,1.901
		s2.475-0.874,4.002-1.533c1.528-0.655,4.876-0.726,6.55-1.236c1.674-0.513,4.584-0.356,7.932,0.886s6.986,4.475,8.005,5.424
		c1.019,0.951,0.582,1.938,0.291,2.96s-0.946,4.279-1.31,5.813c-0.364,1.533-1.819,2.014-1.819,2.014h-0.368
		c0.451-1.168,0.709-2.491,0.709-3.83c0-5.804-4.67-10.528-10.431-10.528c-5.762,0-10.432,4.736-10.432,10.539
		c0,1.337,0.258,2.651,0.71,3.819h-6.386c0,0,1.019,2.442,3.784,3.537c1.746,0.694,4.188,0.782,5.751,0.77
		c1.794,1.469,4.079,2.342,6.572,2.342c3.951,0,7.388-2.219,9.158-5.483c1.055-0.032,2.441-0.102,3.333-0.225
		c1.601-0.218,1.892-0.949,1.674-1.972c-0.219-1.022,0.072-2.048,0.146-3.434c0.072-1.389,0.946-3.436,1.31-4.823
		C262.275,93.509,261.475,92.997,260.383,92.122 M246.291,107.9c-4.147,0-7.521-3.403-7.521-7.586c0-4.184,3.374-7.586,7.521-7.586
		c4.146,0,7.521,3.402,7.521,7.586C253.812,104.497,250.437,107.9,246.291,107.9"/>
	<path clip-path="url(#SVGID_24_)" fill="#74777E" d="M186.862,100.357c0-5.805-4.671-10.531-10.431-10.531
		c-5.762,0-10.432,4.694-10.432,10.499c0,5.806,4.67,10.504,10.432,10.504c2.533,0,4.854-0.913,6.662-2.426
		c1.957,0.051,5.518,0.047,7.357-0.824c2.619-1.241,4.146-3.394,4.221-3.394h-8.519
		C186.604,103.016,186.862,101.695,186.862,100.357 M168.911,100.314c0-4.183,3.373-7.586,7.521-7.586
		c4.146,0,7.521,3.403,7.521,7.586c0,4.185-3.374,7.587-7.521,7.587C172.284,107.901,168.911,104.499,168.911,100.314"/>
</svg>
