<?xml version="1.0" encoding="utf-8"?>
<!DOCTYPE svg PUBLIC "-//W3C//DTD SVG 1.1//EN" "http://www.w3.org/Graphics/SVG/1.1/DTD/svg11.dtd">
<svg version="1.1" xmlns="http://www.w3.org/2000/svg" xmlns:xlink="http://www.w3.org/1999/xlink" x="0px" y="0px" width="20px" height="16px" viewBox="0 0 20 16" enable-background="new 0 0 20 16" xml:space="preserve">
	<path clip-path="url(#SVGID_2_)" fill="#FFFFFF" d="M5.937,9.23c0,2.21,1.818,4,4.061,4c2.243,0,4.063-1.79,4.063-4
		c0-2.209-1.819-4-4.063-4C7.755,5.23,5.937,7.021,5.937,9.23 M18.747,2.461h-4.373C14.061,1.23,13.749,0,12.498,0H7.499
		c-1.25,0-1.562,1.23-1.874,2.461H1.249C0.563,2.461,0,3.016,0,3.692V14.77C0,15.446,0.563,16,1.249,16h17.498
		c0.688,0,1.25-0.554,1.25-1.23V3.692C19.997,3.016,19.436,2.461,18.747,2.461 M9.998,14.692c-3.062,0-5.545-2.445-5.545-5.462
		s2.483-5.46,5.545-5.46c3.063,0,5.547,2.444,5.547,5.46S13.062,14.692,9.998,14.692 M18.747,6.154h-2.499V4.923h2.499V6.154z"/>
</svg>
