<?xml version="1.0" encoding="utf-8"?>
<!DOCTYPE svg PUBLIC "-//W3C//DTD SVG 1.1//EN" "http://www.w3.org/Graphics/SVG/1.1/DTD/svg11.dtd">
<svg version="1.1" id="Layer_2" xmlns="http://www.w3.org/2000/svg" xmlns:xlink="http://www.w3.org/1999/xlink" x="0px" y="0px" width="21px" height="16px" viewBox="0 0 21 16" enable-background="new 0 0 21 16" xml:space="preserve">
<g>
	<path clip-path="url(#SVGID_2_)" fill="#8A92A1" d="M18,0H3C1.346,0,0,0.992,0,2.212v8.17C0,11.602,1.221,13,2.875,13H4v3l8-3h6
		c1.654,0,3-0.992,3-2.212V2.212C21,0.992,19.654,0,18,0 M19,10.263C19,10.67,18.552,11,18,11h-7l-5,3.063V11H3
		c-0.552,0-1-0.33-1-0.737V2.738C2,2.33,2.448,2,3,2h15c0.552,0,1,0.33,1,0.738V10.263z"/>
	<path clip-path="url(#SVGID_2_)" fill="#8A92A1" d="M6.481,5.018c-0.828,0-1.499,0.671-1.499,1.5c0,0.83,0.671,1.5,1.499,1.5
		c0.829,0,1.501-0.67,1.501-1.5C7.982,5.689,7.311,5.018,6.481,5.018"/>
	<path clip-path="url(#SVGID_2_)" fill="#8A92A1" d="M10.481,5C9.653,5,8.982,5.671,8.982,6.5c0,0.83,0.671,1.5,1.499,1.5
		c0.829,0,1.501-0.67,1.501-1.5C11.982,5.671,11.311,5,10.481,5"/>
	<path clip-path="url(#SVGID_2_)" fill="#8A92A1" d="M14.499,5C13.671,5,13,5.671,13,6.5C13,7.33,13.671,8,14.499,8
		C15.328,8,16,7.33,16,6.5C16,5.671,15.328,5,14.499,5"/>
</g>
</svg>
