<?xml version="1.0" encoding="utf-8"?>
<!DOCTYPE svg PUBLIC "-//W3C//DTD SVG 1.1//EN" "http://www.w3.org/Graphics/SVG/1.1/DTD/svg11.dtd">
<svg version="1.1" xmlns="http://www.w3.org/2000/svg" xmlns:xlink="http://www.w3.org/1999/xlink" x="0px" y="0px" width="38px" height="15px" viewBox="0 0 38 15" enable-background="new 0 0 38 15" xml:space="preserve">
	<path clip-path="url(#SVGID_2_)" fill="#FFFFFF" d="M8.062,6.573C8.646,5.876,8.999,4.979,8.999,4c0-2.206-1.793-4-3.999-4H3.001H1
		H0v14h1h2.001h3c2.205,0,3.998-1.795,3.998-3.999C9.999,8.548,9.222,7.273,8.062,6.573 M3.001,1.999h1.585
		c0.874,0,1.585,0.898,1.585,2.001S5.461,5.999,4.587,5.999H3.001V1.999z M5.484,11.999H3.001V8.001h2.483
		c0.915,0,1.656,0.896,1.656,2C7.141,11.103,6.399,11.999,5.484,11.999"/>
    <polygon fill="#FFFFFF" points="16.061,0 16.061,1 18.063,1 13.062,13.001 11.062,13.001 11.062,14 18.063,14 18.063,13.001 16.061,13.001 21.061,1 23.063,1 23.063,0 "/>
	<path clip-path="url(#SVGID_4_)" fill="#FFFFFF" d="M36.962,1.093l-0.06-0.059c-1.38-1.379-3.636-1.379-5.015,0l-3.194,3.195
		c-1.379,1.379-1.379,3.635,0,5.014l0.059,0.059c0.114,0.115,0.237,0.219,0.362,0.314l1.169-1.17
		c-0.135-0.082-0.265-0.176-0.382-0.293l-0.06-0.061c-0.748-0.748-0.748-1.966,0-2.715l3.195-3.194c0.748-0.749,1.968-0.749,2.716,0
		l0.059,0.058c0.749,0.749,0.749,1.968,0,2.716l-1.446,1.446c0.253,0.619,0.371,1.28,0.361,1.938l2.235-2.235
		C38.34,4.728,38.34,2.472,36.962,1.093 M32.239,5.697c-0.115-0.115-0.236-0.219-0.362-0.314l-1.17,1.169
		c0.137,0.081,0.266,0.177,0.383,0.294l0.059,0.059c0.749,0.749,0.749,1.965,0,2.716l-3.195,3.194c-0.748,0.749-1.966,0.749-2.714,0
		l-0.062-0.059c-0.748-0.748-0.748-1.968,0-2.717l1.447-1.444c-0.25-0.62-0.369-1.28-0.359-1.94L24.03,8.892
		c-1.379,1.378-1.379,3.635,0,5.015l0.06,0.06c1.379,1.378,3.635,1.378,5.014,0l3.194-3.196c1.379-1.379,1.379-3.636,0-5.014
		L32.239,5.697z"/>
</svg>
