<?xml version="1.0" encoding="utf-8"?>
<!DOCTYPE svg PUBLIC "-//W3C//DTD SVG 1.1//EN" "http://www.w3.org/Graphics/SVG/1.1/DTD/svg11.dtd">
<svg version="1.1" id="Layer_2" xmlns="http://www.w3.org/2000/svg" xmlns:xlink="http://www.w3.org/1999/xlink" x="0px" y="0px" width="366px" height="35px" viewBox="0 0 366 35" enable-background="new 0 0 366 35" xml:space="preserve">
	<path clip-path="url(#SVGID_2_)" fill="#00A972" d="M363.001,29.502c-1.341-1.869-5.6-7.84-5.6-8.233
		c0-0.388,3.397-5.268,4.641-6.97c0.251-0.345,0.778-0.632,1.27-0.634c1.044-0.002,2.103,0.054,2.103,0.054V9.644h-5.211
		c-0.33,0-0.701,0.207-0.916,0.552c-1.058,1.702-4.213,7.331-4.439,7.331c-0.218,0-3.3-5.292-4.492-7.128
		c-0.288-0.443-0.851-0.726-1.491-0.726s-5.127-0.03-5.127-0.03v4.075h2.783c0,0,0.84,0.155,1.024,0.42
		c1.079,1.559,4.78,6.925,4.78,7.239c0,0.306-3.874,6.021-5.21,7.985c-0.279,0.409-0.937,0.656-1.277,0.656h-2.685v4.075
		c0,0,4.736-0.024,5.101,0c0.366,0.025,1.158-0.397,1.441-0.838c1.303-2.023,4.877-8.134,5.11-8.134c0.24,0,4.034,6.563,5.21,8.425
		c0.217,0.344,0.737,0.547,1.03,0.547H366v-4.075l-1.757,0.026C364.243,30.047,363.414,30.118,363.001,29.502"/>
	<path clip-path="url(#SVGID_2_)" fill="#00A972" d="M277.538,30.021v4.075h11.132v-4.075h-2.441c-0.488,0-1.074-0.146-1.074-1.116
		v-7.035c0-0.873,1.845-4.896,3.551-6.749c1.38-1.498,2.82-1.401,2.82-1.401h2.416V9.644h-3.514c-0.635,0-2.197,0.874-3.443,2.729
		c-1.244,1.855-1.83,3.348-1.83,3.348s0.015-3.554,0-4.33c-0.02-1.043-0.452-1.747-1.446-1.747h-6.754v4.076
		c0,0,1.756,0.013,2.488,0.013s0.989,0.65,0.989,1.031c0,0.319,0.035,13.656,0.035,14.287c0,0.63-0.545,0.995-0.931,0.995
		C279.149,30.046,277.538,30.021,277.538,30.021"/>
	<path clip-path="url(#SVGID_2_)" fill="#00A972" d="M259.098,8.698c-6.873,0-13.194,5.167-13.194,13.152
		c0,7.983,6.727,13.15,13.194,13.15c6.469,0,12.752-5.44,12.752-13.073C271.85,14.295,265.64,8.698,259.098,8.698 M259.019,30.514
		c-4.115,0-8.393-3.395-8.393-8.645c0-5.247,4.018-8.643,8.393-8.643c4.159,0,8.11,3.679,8.11,8.695S263.131,30.514,259.019,30.514"
		/>
	<path clip-path="url(#SVGID_2_)" fill="#00A972" d="M213.096,29.59c-2.057-0.707-1.758-3.645-1.758-3.645V14.354
		c0-0.95,0.428-1.217,1.134-1.217h4.14V9.644h-4.099c-0.735,0-1.175-0.358-1.175-1.33V3.239h-5.271V8.44l0.019,1.204h-3.534v3.493
		h3.406l0.109,1.175v12.726c0,0-0.264,3.175,1.526,4.998c2.039,2.078,4.918,2.061,4.918,2.061h4.101v-4.075
		C216.611,30.021,214.365,30.026,213.096,29.59"/>
	<path clip-path="url(#SVGID_2_)" fill="#00A972" d="M171.526,28.711c0-0.525-0.024-0.655-0.024-0.655s0.256-9.278-0.037-12.153
		c-0.293-2.875-3.368-6.44-9.629-6.585c-6.26-0.146-9.228,2.911-9.228,2.911l2.124,3.02c0,0,0.623-0.218,1.721-1.055
		c1.098-0.837,3.917-1.201,4.503-1.201s2.783-0.036,4.064,1.056c1.282,1.092,1.581,1.896,1.794,2.583c0.214,0.687,0,2.329,0,2.329
		h-4.687c0,0-6.151-0.219-9.3,3.749c-3.149,3.966-0.687,9.106,2.708,10.66c3.565,1.632,7.396,1.201,10.144-2.183
		c0.455-0.56,0.824-1.066,1.135-1.527v0.362c0,0-0.023,0.796-0.023,1.674c0,1.359,1.171,2.401,2.953,2.401h4.687v-4.075h-1.586
		C171.917,30.021,171.526,29.682,171.526,28.711 M166.814,25.363c0,0-1.794,2.62-3.295,3.784c-1.434,1.111-6.017,2.045-7.579-1.128
		c-1.684-3.42,2.352-5.764,3.844-5.932c3.662-0.409,7.03,0.364,7.03,0.364V25.363z"/>
	<path clip-path="url(#SVGID_2_)" fill="#00A972" d="M90.916,9.062h3.841V5.102c0,0-0.309-2.234-2.744-3.5
		C89.577,0.335,86.443,0,84.794,0s-5.089,0.483-6.926,1.824c-1.835,1.341-3.874,3.724-3.799,7.113
		c0.074,3.388,1.712,5.489,3.401,6.814c2.005,1.572,7.931,3.613,10.545,4.582c2.514,0.929,3.239,3.461,3.197,5.287
		c-0.037,1.638-1.127,5.027-6.597,4.804c-5.47-0.224-6.743-2.627-6.855-3.262c-0.111-0.634-0.073-2.965-0.073-2.965h-4.021v4.142
		c0,0,0.306,3.351,4.053,4.953c3.747,1.601,5.436,1.341,6.972,1.341c1.536,0,5.882,0.199,9.576-3.688
		c3.185-3.352,1.79-9.236,0.891-10.428c-0.961-1.272-2.525-3.275-9.195-5.735c-6.669-2.458-6.807-4.424-6.775-5.994
		c0.042-2.123,1.459-4.774,6.104-4.575C90.505,4.438,90.953,6.15,90.916,9.062"/>
	<path clip-path="url(#SVGID_2_)" fill="#00A972" d="M335.385,30.021c-0.654,0-1.021-0.389-1.021-0.97
		c0-3.524,0.001-17.184,0.001-17.886c0-0.987-0.537-1.521-1.697-1.521h-6.506v4.076h2.486c0.932,0,1.03,0.626,1.03,1.401
		c0,0.154-0.004,13.487,0,13.951c0.004,0.54-0.54,0.949-0.902,0.949h-2.027v4.075h10.545v-4.075H335.385z"/>
	<path clip-path="url(#SVGID_2_)" fill="#00A972" d="M330.037,6.732h3.383c0.522,0,0.945-0.42,0.945-0.938V2.432
		c0-0.519-0.423-0.938-0.945-0.938h-3.383c-0.522,0-0.945,0.42-0.945,0.938v3.363C329.092,6.313,329.515,6.732,330.037,6.732"/>
	<path clip-path="url(#SVGID_2_)" fill="#00A972" d="M222.47,0.329v4.076h2.355c1.035,0,1.16,0.567,1.16,1.03v23.414
		c0,0.79-0.476,1.172-1.125,1.172h-2.391v4.075h12.304v-4.075h-2.858c-0.851,0-1.244-0.354-1.244-1.327v-8.124
		c0-0.641,0.312-1.028,1.036-1.028h8.338v-4.075h-8.286c-0.697,0-1.088-0.389-1.088-1.223V5.878c0-0.697,0.244-1.474,0.882-1.474
		h7.314c0.622,0,1.178,0.363,1.178,0.995v2.498h4.101V2.741c0-1.782-0.123-2.413-1.982-2.413H222.47z"/>
	<path clip-path="url(#SVGID_2_)" fill="#00A972" d="M180.875,30.021v4.075h11.13v-4.075h-2.44c-0.488,0-1.074-0.146-1.074-1.116
		v-7.035c0-0.873,1.844-4.896,3.552-6.749c1.379-1.498,2.819-1.401,2.819-1.401h2.416V9.644h-3.515
		c-0.636,0-2.197,0.874-3.441,2.729c-1.245,1.855-1.831,3.348-1.831,3.348v-4.33c0-0.777-0.452-1.747-1.446-1.747h-6.756v4.076
		c0,0,1.759,0.013,2.49,0.013c0.732,0,1.026,0.924,1.026,1.305v14.014c0,0.63-0.546,0.995-0.932,0.995
		C182.487,30.046,180.875,30.021,180.875,30.021"/>
	<path clip-path="url(#SVGID_2_)" fill="#00A972" d="M144.626,30.021c-0.695,0-1.245-0.291-1.245-1.261v-9.036
		c0-3.712-0.099-6.22-1.197-7.749c-1.099-1.528-3.163-2.663-5.664-2.659c-3.075,0.004-5.327,1.626-7.002,3.419
		c-0.872,0.933-2.115,2.315-2.67,2.887c-0.143-1.562-0.438-2.771-1.067-3.646c-1.098-1.528-3.163-2.663-5.663-2.659
		c-3.076,0.004-5.327,1.626-7.003,3.419c-0.808,0.865-1.936,2.117-2.54,2.75c0.002-0.797,0.012-3.437,0-4.094
		c-0.02-1.043-0.452-1.747-1.447-1.747h-6.755v4.076c0,0,1.758,0.013,2.49,0.013c0.732,0,0.99,0.65,0.99,1.031
		c0,0.319,0.036,13.656,0.036,14.287c0,0.63-0.546,0.995-0.932,0.995s-1.997-0.025-1.997-0.025v4.075h11.131v-4.075h-2.441
		c-0.488,0-1.074-0.146-1.074-1.116v-7.035v-0.547c0.572-1.499,3.84-4.937,5.381-6.11c2.088-1.59,4.686-1.483,5.566-0.328
		c0.916,1.201,0.769,2.91,0.769,2.91v14.337c0,1.432,0.635,1.965,1.685,1.965h5.932v-4.075h-1.684c-0.733,0-1.245-0.254-1.245-1.261
		v-7.438c0.572-1.499,3.84-4.937,5.382-6.11c2.087-1.59,4.685-1.483,5.565-0.328c0.916,1.201,0.769,2.91,0.769,2.91v14.337
		c0,1.237,0.537,1.965,1.684,1.965h5.932v-4.075H144.626z"/>
	<path clip-path="url(#SVGID_2_)" fill="#00A972" d="M299.214,0.329v4.076h2.356c1.034,0,1.158,0.567,1.158,1.03v23.414
		c0,0.79-0.476,1.172-1.123,1.172h-2.392v4.075h12.303v-4.075h-2.855c-0.851,0-1.245-0.354-1.245-1.327v-8.124
		c0-0.641,0.312-1.028,1.037-1.028h8.337v-4.075h-8.287c-0.696,0-1.087-0.389-1.087-1.223V5.878c0-0.697,0.244-1.474,0.881-1.474
		h7.314c0.622,0,1.179,0.363,1.179,0.995v2.498h4.101V2.741c0-1.782-0.122-2.413-1.983-2.413H299.214z"/>
	<path clip-path="url(#SVGID_4_)" fill="#00A972" d="M22.689,24.469c-7.454-3.582-12.224-12.896-10.621-18.401
		c1.295-4.449,5.552-5.392,13.341-3.658c7.789,1.735,14.944,8.823,14.944,8.823l4.621,0.453c0,0-1.585-1.491-2.385-2.149
		C41.646,8.759,32.155,1.09,23.583,0.034C16.002-0.9,4.951,1.127,4.988,1.542c0.037,0.415,0.074,0.565,0.484,0.905
		c0.41,0.339,0.298,0.641,0.075,1.659c-0.224,1.019-1.342,3.055-1.976,7.203c-0.633,4.148,0.634,6.222,0.634,6.222
		s1.508-0.232,2.383-0.264c1.096-0.041,4.325,0.038,7.865,3.054c4.1,3.494,3.652,8.899,3.652,8.899l17.292,0.678l1.378-1.81
		C36.515,28.164,30.896,28.413,22.689,24.469 M10.838,3.39c-0.336,0.641-3.391,4.186-3.615,4.45S6.627,8.104,6.59,7.124
		C6.553,6.143,7,3.239,7.819,2.599c0.82-0.642,3.131-0.981,3.28-0.189C11.099,2.41,11.174,2.749,10.838,3.39"/>
	<path clip-path="url(#SVGID_4_)" fill="#00A972" d="M3.981,20.509c1.118-1.055,1.192-1.733,0.67-2.186
		c-0.522-0.453-1.657,0.594-2.273,1.583c-0.634,1.018-1.565,2.828-1.118,3.733C1.261,23.64,2.863,21.565,3.981,20.509"/>
	<path clip-path="url(#SVGID_4_)" fill="#00A972" d="M18.857,9.099c-1.413-0.119-5.538-0.43-5.538-0.43v0.339
		c0,0,31.202,4.905,32.858,5.506c1.976,0.716,2.361,2.602,2.437,4.525c0.074,1.923,3.306,3.583,3.306,3.583s-1.197-2.075-1.57-2.716
		c-0.373-0.641-0.072-2.375-0.259-3.13c-0.186-0.754-0.663-2.488-2.563-3.469c-1.901-0.98-18.105-3.101-19.747-3.318
		C27.315,9.927,21.49,9.32,18.857,9.099"/>
	<path clip-path="url(#SVGID_4_)" fill="#00A972" d="M15.31,27.757c0-3.998-3.203-7.241-7.155-7.241C4.203,20.516,1,23.759,1,27.757
		c0,3.997,3.203,7.239,7.155,7.239c1.706,0,3.271-0.606,4.5-1.615c3.564-1.124,5.151-3.896,5.151-3.896l-2.682-0.112
		C15.242,28.852,15.31,28.313,15.31,27.757 M8.155,32.733c-2.712,0-4.919-2.233-4.919-4.977c0-2.745,2.207-4.979,4.919-4.979
		c2.712,0,4.918,2.233,4.918,4.979C13.074,30.5,10.867,32.733,8.155,32.733"/>
	<path clip-path="url(#SVGID_4_)" fill="#00A972" d="M45.72,20.516c-3.952,0-7.155,3.243-7.155,7.241c0,0.83,0.146,1.625,0.4,2.368
		H36.03c0,0,4.544,3.709,6.854,4.279c0.002,0.001,0.004,0.001,0.007,0.002c0.868,0.378,1.824,0.59,2.829,0.59
		c3.952,0,7.155-3.242,7.155-7.239C52.875,23.759,49.671,20.516,45.72,20.516 M45.72,32.733c-2.713,0-4.919-2.233-4.919-4.977
		c0-2.745,2.206-4.979,4.919-4.979c2.712,0,4.919,2.233,4.919,4.979C50.639,30.5,48.432,32.733,45.72,32.733"/>
</svg>
