<?xml version="1.0" encoding="utf-8"?>
<!DOCTYPE svg PUBLIC "-//W3C//DTD SVG 1.1//EN" "http://www.w3.org/Graphics/SVG/1.1/DTD/svg11.dtd">
<svg version="1.1" id="Layer_1" xmlns="http://www.w3.org/2000/svg" xmlns:xlink="http://www.w3.org/1999/xlink" x="0px" y="0px" width="336.237px" height="49.999px" viewBox="0 0 336.237 49.999" enable-background="new 0 0 336.237 49.999"
	 xml:space="preserve">
	<path clip-path="url(#SVGID_2_)" fill="#23A774" d="M334.479,37.629c0,0-0.831,0.071-1.242-0.549
		c-1.341-1.881-5.601-7.892-5.601-8.287c0-0.39,3.397-5.302,4.641-7.015c0.251-0.348,0.778-0.637,1.271-0.638
		c1.043-0.002,2.104,0.054,2.104,0.054v-4.102h-5.214c-0.329,0-0.702,0.209-0.916,0.556c-1.058,1.713-4.213,7.379-4.44,7.379
		c-0.219,0-3.301-5.327-4.493-7.174c-0.288-0.446-0.852-0.73-1.491-0.73c-0.642,0-5.128-0.031-5.128-0.031v4.102h2.783
		c0,0,0.841,0.156,1.024,0.424c1.08,1.568,4.783,6.969,4.783,7.286c0,0.308-3.876,6.06-5.213,8.038
		c-0.279,0.411-0.937,0.659-1.278,0.659h-2.686v4.104c0,0,4.736-0.025,5.104,0c0.366,0.023,1.158-0.401,1.442-0.845
		c1.302-2.037,4.878-8.187,5.11-8.187c0.239,0,4.035,6.605,5.213,8.48c0.217,0.345,0.735,0.551,1.028,0.551h4.957v-4.104
		L334.479,37.629z"/>
	<path clip-path="url(#SVGID_2_)" fill="#23A774" d="M264.231,19.839c-1.244,1.868-1.831,3.37-1.831,3.37s0.015-3.577,0-4.359
		c-0.019-1.049-0.451-1.758-1.447-1.758h-6.757v4.102c0,0,1.758,0.014,2.491,0.014c0.731,0,0.989,0.654,0.989,1.037
		c0,0.322,0.036,13.746,0.036,14.38s-0.547,1.003-0.933,1.003s-1.998-0.026-1.998-0.026v4.104h11.134v-4.104h-2.44
		c-0.488,0-1.075-0.146-1.075-1.123v-7.081c0-0.879,1.845-4.928,3.553-6.793c1.38-1.507,2.82-1.41,2.82-1.41h2.417v-4.102h-3.515
		C267.04,17.092,265.478,17.971,264.231,19.839"/>
	<path clip-path="url(#SVGID_2_)" fill="#23A774" d="M239.267,16.14c-6.876,0-13.198,5.201-13.198,13.237
		c0,8.036,6.729,13.237,13.198,13.237c6.472,0,12.756-5.478,12.756-13.159C252.022,21.773,245.811,16.14,239.267,16.14
		 M239.187,38.1c-4.115,0-8.396-3.418-8.396-8.701c0-5.282,4.021-8.7,8.396-8.7c4.162,0,8.112,3.703,8.112,8.752
		S243.301,38.1,239.187,38.1"/>
	<path clip-path="url(#SVGID_2_)" fill="#23A774" d="M194.425,15.753v-5.107h-5.274v5.234l0.02,1.211h-3.536v3.517h3.409
		l0.107,1.183v12.807c0,0-0.263,3.195,1.526,5.031c2.04,2.092,4.92,2.074,4.92,2.074h4.103v-4.103c0,0-2.247,0.006-3.519-0.434
		c-2.056-0.712-1.756-3.668-1.756-3.668V21.833c0-0.955,0.427-1.224,1.133-1.224h4.142v-3.517h-4.101
		C194.865,17.091,194.425,16.731,194.425,15.753"/>
	<path clip-path="url(#SVGID_2_)" fill="#23A774" d="M159.289,36.283c0-0.527-0.025-0.66-0.025-0.66s0.257-9.339-0.036-12.231
		c-0.293-2.894-3.37-6.483-9.633-6.629s-9.23,2.93-9.23,2.93l2.125,3.04c0,0,0.622-0.22,1.721-1.063
		c1.099-0.841,3.919-1.208,4.505-1.208s2.784-0.037,4.066,1.062c1.281,1.099,1.582,1.91,1.794,2.6c0.213,0.692,0,2.344,0,2.344
		s-2.058,0.11-4.207,0c-2.148-0.11-7.761-0.254-10.115,3.949c-2.485,4.437-0.355,8.99,3.04,10.555
		c3.567,1.643,7.398,1.21,10.147-2.197c0.454-0.563,0.824-1.073,1.135-1.538v0.365c0,0-0.024,0.802-0.024,1.686
		c0,1.367,1.172,2.417,2.955,2.417h4.688v-4.103h-1.587C159.679,37.602,159.289,37.261,159.289,36.283 M153.99,32.914
		c0,0-0.726,2.424-3.296,3.809c-1.602,0.864-5.224,1.511-6.635-1.753c-1.282-2.966,1.765-5.117,4.342-5.353
		c2.41-0.22,5.589,0.366,5.589,0.366V32.914z"/>
	<path clip-path="url(#SVGID_2_)" fill="#23A774" d="M78.978,22.266c-6.672-2.474-6.809-4.454-6.777-6.034
		c0.042-2.136,1.459-4.805,6.106-4.604c5.213,0.224,5.661,1.948,5.624,4.878h3.842v-3.985c0,0-0.309-2.249-2.746-3.524
		c-2.436-1.273-5.571-1.611-7.221-1.611c-1.649,0-5.09,0.486-6.927,1.836c-1.836,1.35-3.876,3.749-3.8,7.16
		c0.074,3.41,1.712,5.525,3.402,6.859c2.006,1.583,7.934,3.636,10.549,4.611c2.513,0.937,3.24,3.485,3.198,5.322
		c-0.038,1.648-1.127,5.06-6.599,4.836c-5.472-0.227-6.744-2.646-6.857-3.285c-0.112-0.636-0.073-2.983-0.073-2.983h-4.023v4.168
		c0,0,0.306,3.373,4.055,4.986c3.748,1.611,5.437,1.349,6.974,1.349s5.885,0.202,9.579-3.711c3.186-3.373,1.79-9.296,0.891-10.494
		C87.214,26.758,85.649,24.741,78.978,22.266"/>
	<path clip-path="url(#SVGID_2_)" fill="#23A774" d="M307.956,37.602c-0.652,0-1.021-0.391-1.021-0.977
		c0-3.548,0.002-17.295,0.002-18.001c0-0.994-0.539-1.532-1.698-1.532h-6.507v4.103h2.487c0.931,0,1.028,0.631,1.028,1.409
		c0,0.156-0.003,13.577,0,14.043c0.005,0.544-0.538,0.955-0.9,0.955h-2.028v4.103h10.547v-4.103H307.956z"/>
	<path clip-path="url(#SVGID_2_)" fill="#23A774" d="M302.607,14.163h3.385c0.521,0,0.945-0.424,0.945-0.945V9.833
		c0-0.522-0.424-0.944-0.945-0.944h-3.385c-0.521,0-0.944,0.422-0.944,0.944v3.385C301.663,13.739,302.086,14.163,302.607,14.163"/>
	<path clip-path="url(#SVGID_2_)" fill="#23A774" d="M223.499,7.716h-19.698v4.102h2.356c1.035,0,1.159,0.571,1.159,1.037v23.566
		c0,0.796-0.476,1.18-1.125,1.18h-2.391v4.103h12.306v-4.103h-2.858c-0.851,0-1.243-0.356-1.243-1.334v-8.179
		c0-0.644,0.312-1.034,1.036-1.034h8.34v-4.103h-8.288c-0.697,0-1.088-0.391-1.088-1.231v-8.419c0-0.702,0.243-1.484,0.881-1.484
		h7.316c0.622,0,1.179,0.366,1.179,1.002v2.514h4.102v-5.19C225.482,8.35,225.36,7.716,223.499,7.716"/>
	<path clip-path="url(#SVGID_2_)" fill="#23A774" d="M175.16,19.839c-1.246,1.868-1.832,3.37-1.832,3.37V18.85
		c0-0.782-0.451-1.758-1.446-1.758h-6.758v4.102c0,0,1.759,0.014,2.491,0.014c0.733,0,1.025,0.929,1.025,1.313v14.104
		c0,0.635-0.546,1.003-0.933,1.003c-0.386,0-1.998-0.026-1.998-0.026v4.104h11.135v-4.104h-2.441c-0.489,0-1.075-0.146-1.075-1.123
		v-7.081c0-0.879,1.845-4.928,3.553-6.793c1.38-1.507,2.82-1.41,2.82-1.41h2.417v-4.102h-3.516
		C177.968,17.092,176.405,17.971,175.16,19.839"/>
	<path clip-path="url(#SVGID_2_)" fill="#23A774" d="M133.48,36.333v-9.096c0-3.735-0.098-6.26-1.197-7.799
		c-1.098-1.538-3.163-2.681-5.665-2.677c-3.077,0.005-5.329,1.637-7.004,3.441c-0.873,0.94-2.116,2.332-2.671,2.905
		c-0.143-1.57-0.439-2.788-1.067-3.669c-1.1-1.538-3.165-2.681-5.667-2.677c-3.077,0.005-5.328,1.637-7.003,3.441
		c-0.81,0.872-1.938,2.132-2.541,2.769c0.003-0.802,0.011-3.459-0.001-4.121c-0.019-1.049-0.451-1.758-1.446-1.758H92.46v4.102
		c0,0,1.758,0.014,2.491,0.014c0.732,0,0.989,0.654,0.989,1.037c0,0.321,0.036,13.745,0.036,14.38s-0.546,1.002-0.932,1.002
		c-0.386,0-1.998-0.025-1.998-0.025v4.104h11.135v-4.104h-2.443c-0.488,0-1.074-0.146-1.074-1.122v-7.081v-0.552
		c0.573-1.508,3.841-4.969,5.384-6.151c2.088-1.599,4.687-1.493,5.567-0.33c0.916,1.209,0.769,2.93,0.769,2.93v14.431
		c0,1.44,0.635,1.979,1.685,1.979h5.933v-4.104h-1.685c-0.732,0-1.245-0.256-1.245-1.269v-7.486
		c0.573-1.508,3.841-4.969,5.384-6.151c2.088-1.599,4.687-1.493,5.567-0.33c0.916,1.209,0.77,2.93,0.77,2.93v14.431
		c0,1.245,0.537,1.979,1.684,1.979h5.933v-4.104h-1.684C134.03,37.602,133.48,37.31,133.48,36.333"/>
	<path clip-path="url(#SVGID_2_)" fill="#23A774" d="M293.818,7.716h-19.697v4.102h2.356c1.034,0,1.159,0.571,1.159,1.037v23.566
		c0,0.796-0.476,1.18-1.124,1.18h-2.392v4.103h12.306v-4.103h-2.858c-0.851,0-1.243-0.356-1.243-1.334v-8.179
		c0-0.644,0.312-1.034,1.035-1.034h8.341v-4.103h-8.288c-0.698,0-1.088-0.391-1.088-1.231v-8.419c0-0.702,0.243-1.484,0.881-1.484
		h7.316c0.622,0,1.179,0.366,1.179,1.002v2.514h4.101v-5.19C295.802,8.35,295.681,7.716,293.818,7.716"/>
	<path clip-path="url(#SVGID_2_)" fill="#23A774" d="M22.278,11.323c-7.552,1.504-12.458,8.844-10.955,16.396
		c1.503,7.554,8.843,12.459,16.396,10.956c7.554-1.502,12.458-8.841,10.955-16.395C37.172,14.726,29.833,9.822,22.278,11.323
		 M25,34.336c-5.156,0-9.337-4.18-9.337-9.336c0-5.157,4.181-9.338,9.337-9.338c5.158,0,9.337,4.181,9.337,9.338
		C34.336,30.156,30.158,34.336,25,34.336"/>
	<path clip-path="url(#SVGID_2_)" fill="#23A774" d="M42.831,7.531v35.417c0,0,12.582-15.548,12.582-17.388
		S42.831,7.531,42.831,7.531"/>
	<path clip-path="url(#SVGID_2_)" fill="#23A774" d="M35.684,5.102c-0.175-0.886,0.055-1.758,0.56-2.428
		c-1.12-0.565-2.283-1.047-3.48-1.439c-0.181,1.243-1.12,2.295-2.422,2.555c-1.653,0.33-3.259-0.744-3.587-2.396
		c-0.091-0.456-0.071-0.909,0.034-1.332c-1.201-0.087-2.418-0.083-3.647,0.01c0.214,1.583-0.834,3.081-2.424,3.398
		c-1.589,0.314-3.132-0.666-3.54-2.213c-1.063,0.349-2.092,0.759-3.08,1.237C14.39,2.86,14.603,3.3,14.7,3.791
		c0.329,1.653-0.745,3.258-2.397,3.588C10.938,7.65,9.605,6.963,8.999,5.784c-1.091,0.909-2.095,1.913-3.01,2.987
		c0.673,0.432,1.177,1.124,1.345,1.97C7.664,12.394,6.59,14,4.938,14.328c-0.836,0.167-1.66-0.026-2.313-0.473
		c-0.552,1.108-1.025,2.257-1.408,3.439c1.27,0.157,2.357,1.109,2.62,2.432c0.329,1.651-0.745,3.258-2.397,3.588
		c-0.475,0.093-0.944,0.068-1.382-0.049c-0.082,1.184-0.078,2.387,0.015,3.597c0.091-0.028,0.185-0.053,0.282-0.071
		c1.652-0.328,3.258,0.745,3.587,2.396c0.327,1.652-0.744,3.26-2.397,3.587c-0.097,0.02-0.193,0.031-0.288,0.043
		c0.346,1.06,0.756,2.087,1.23,3.07c0.315-0.204,0.672-0.356,1.062-0.433c1.653-0.328,3.258,0.745,3.587,2.396
		c0.252,1.267-0.321,2.5-1.344,3.159c0.839,1.004,1.754,1.933,2.73,2.788c0.43-0.698,1.135-1.224,2-1.395
		c1.653-0.33,3.259,0.744,3.586,2.395c0.177,0.886-0.052,1.755-0.552,2.423c1.174,0.606,2.398,1.12,3.661,1.535
		c0.267-1.125,1.162-2.051,2.371-2.291c1.652-0.329,3.258,0.743,3.586,2.396c0.073,0.364,0.073,0.727,0.018,1.072
		c1.208,0.089,2.432,0.087,3.666-0.008c-0.214-1.583,0.835-3.081,2.425-3.396c1.589-0.317,3.131,0.666,3.54,2.211
		c1.299-0.427,2.545-0.953,3.728-1.568c-0.245-0.341-0.424-0.739-0.511-1.178c-0.33-1.651,0.745-3.257,2.396-3.586
		c0.725-0.145,1.438-0.011,2.041,0.315V30.961c-1.98,5.123-6.455,9.157-12.241,10.308c-8.985,1.786-17.719-4.048-19.506-13.031
		c-1.787-8.988,4.049-17.72,13.034-19.507c8.038-1.599,15.872,2.906,18.713,10.308V6.967c-0.347,0.256-0.753,0.443-1.205,0.532
		C37.62,7.827,36.014,6.754,35.684,5.102"/>
</svg>
