<?xml version="1.0" encoding="utf-8"?>
<!DOCTYPE svg PUBLIC "-//W3C//DTD SVG 1.1//EN" "http://www.w3.org/Graphics/SVG/1.1/DTD/svg11.dtd">
<svg version="1.1" id="Layer_2" xmlns="http://www.w3.org/2000/svg" xmlns:xlink="http://www.w3.org/1999/xlink" x="0px" y="0px" width="20px" height="20px" viewBox="0 0 20 20" enable-background="new 0 0 20 20" xml:space="preserve">
	<path clip-path="url(#SVGID_2_)" fill-rule="evenodd" clip-rule="evenodd" fill="#252A2F" d="M19.972,18.847l-5.625-5.598
		c1.176-1.4,1.884-3.204,1.884-5.172C16.23,3.617,12.598,0,8.115,0C3.633,0,0,3.617,0,8.077c0,4.462,3.633,8.079,8.115,8.079
		c1.92,0,3.682-0.667,5.071-1.777l5.637,5.61c0,0,0.613,0.094,0.951-0.243S19.972,18.847,19.972,18.847 M8.115,14.647
		c-3.646,0-6.6-2.942-6.6-6.571c0-3.627,2.954-6.569,6.6-6.569c3.646,0,6.601,2.941,6.601,6.569
		C14.716,11.705,11.761,14.647,8.115,14.647"/>
</svg>
