<?xml version="1.0" encoding="utf-8"?>
<!DOCTYPE svg PUBLIC "-//W3C//DTD SVG 1.1//EN" "http://www.w3.org/Graphics/SVG/1.1/DTD/svg11.dtd">
<svg version="1.1" id="Layer_2" xmlns="http://www.w3.org/2000/svg" xmlns:xlink="http://www.w3.org/1999/xlink" x="0px" y="0px" width="20px" height="20px" viewBox="0 0 20 20" enable-background="new 0 0 20 20" xml:space="preserve">
	<path clip-path="url(#SVGID_2_)" fill="#FFFFFF" d="M19.144,1.476C18.274,0.491,17.332,0,16.292,0H3.708
		C2.931,0,2.141,0.318,1.342,0.954C0.451,1.812,0,2.725,0,3.698v12.604c0,0.868,0.388,1.725,1.15,2.568
		C2.005,19.623,2.862,20,3.708,20h12.584c0.574,0,1.165-0.185,1.766-0.556c0.403-0.185,0.792-0.539,1.171-1.06
		C19.75,17.829,20,16.862,20,15.486V4.392C20,3.096,19.721,2.125,19.144,1.476 M15,12.361c0,1.203-0.549,2.296-1.728,2.956
		C12.75,15.664,11.663,16,9.93,16H6V5h4.399c0.527,0,1.032-0.211,1.506-0.165c1.63,0.277,2.445,1.011,2.445,2.435
		c0,0.833-0.377,1.481-1.129,2.059c-0.255,0.138-0.393,0.197-0.416,0.231c0,0.034,0.1,0.072,0.377,0.141
		C14.42,10.13,15,10.954,15,12.204V12.361z"/>
	<path clip-path="url(#SVGID_2_)" fill="#FFFFFF" d="M10.138,9c0.208,0,0.665-0.072,0.887-0.142C11.51,8.685,12,8.292,12,7.76V7.656
		l-0.266-0.041C11.609,7.06,10.954,7,10.261,7H9.878L9,6.528v0.034V6.58v2.291L8.993,9H10.138z"/>
	<path clip-path="url(#SVGID_2_)" fill="#FFFFFF" d="M10.656,11H8.992L9,10.885v2.709L8.992,14h0.522
		c0.934,0,1.38-0.212,1.554-0.281C11.761,13.51,12,12.917,12,12.291v-0.208l0.072-0.229C11.886,11.229,11.488,11,10.656,11"/>
</svg>
