<?xml version="1.0" encoding="utf-8"?>
<!-- Generator: Adobe Illustrator 15.0.0, SVG Export Plug-In . SVG Version: 6.00 Build 0)  -->
<!DOCTYPE svg PUBLIC "-//W3C//DTD SVG 1.1//EN" "http://www.w3.org/Graphics/SVG/1.1/DTD/svg11.dtd">
<svg version="1.1" id="Layer_2" xmlns="http://www.w3.org/2000/svg" xmlns:xlink="http://www.w3.org/1999/xlink" x="0px" y="0px"
	 width="30px" height="30px" viewBox="0 0 30 30" enable-background="new 0 0 30 30" xml:space="preserve">
<g>
	<defs>
		<rect id="SVGID_1_" width="30" height="30"/>
	</defs>
	<clipPath id="SVGID_2_">
		<use xlink:href="#SVGID_1_"  overflow="visible"/>
	</clipPath>
	<path clip-path="url(#SVGID_2_)" fill="#447EA6" d="M15.96,16.249h-2.495l-0.074,0.076v4.057l0.074,0.077h0.782
		c1.401,0,2.234-0.051,2.496-0.156c1.039-0.312,1.56-0.936,1.56-1.872v-0.312l-0.055-0.468C17.97,16.715,17.209,16.249,15.96,16.249
		"/>
	<path clip-path="url(#SVGID_2_)" fill="#447EA6" d="M15.182,13.388c0.313,0,0.63-0.052,0.963-0.155
		c0.728-0.26,1.094-0.79,1.094-1.588V11.49l-0.03-0.389c-0.188-0.832-0.802-1.249-1.842-1.249h-0.574l-1.378-0.053v0.053
		L13.39,9.878v3.431l0.075,0.079H15.182z"/>
	<path clip-path="url(#SVGID_2_)" fill="#447EA6" d="M27.001-0.001h-24c-1.658,0-3,1.344-3,3v2.555C0.001,5.557,0,5.559,0,5.562
		v18.875c0,0.002,0.001,0.003,0.001,0.005V27c0,1.656,1.342,3,3,3h24c1.657,0,3-1.344,3-3V2.999
		C30.001,1.343,28.658-0.001,27.001-0.001 M22.592,18.536c0,1.802-0.882,3.197-2.65,4.185c-0.782,0.521-2.472,0.78-5.07,0.78H9.256
		V6.81h6.318c0.792,0,1.551,0.035,2.259,0.104c2.445,0.416,3.67,1.69,3.67,3.821c0,1.249-0.566,2.306-1.694,3.174
		c-0.382,0.206-0.59,0.336-0.625,0.389c0,0.051,0.208,0.129,0.625,0.234c1.856,0.64,2.783,1.896,2.783,3.771V18.536z"/>
</g>
</svg>
