<?xml version="1.0" encoding="utf-8"?>
<!-- Generator: Adobe Illustrator 15.0.0, SVG Export Plug-In . SVG Version: 6.00 Build 0)  -->
<!DOCTYPE svg PUBLIC "-//W3C//DTD SVG 1.1//EN" "http://www.w3.org/Graphics/SVG/1.1/DTD/svg11.dtd">
<svg version="1.1" id="Layer_2" xmlns="http://www.w3.org/2000/svg" xmlns:xlink="http://www.w3.org/1999/xlink" x="0px" y="0px"
	 width="30px" height="30px" viewBox="0 0 30 30" enable-background="new 0 0 30 30" xml:space="preserve">
<g>
	<defs>
		<rect id="SVGID_1_" width="30" height="30"/>
	</defs>
	<clipPath id="SVGID_2_">
		<use xlink:href="#SVGID_1_"  overflow="visible"/>
	</clipPath>
	<path clip-path="url(#SVGID_2_)" fill="#2A6469" d="M27,0H3C1.343,0,0,1.343,0,3v24c0,1.657,1.343,3,3,3h24c1.657,0,3-1.343,3-3V3
		C30,1.343,28.657,0,27,0 M23.592,8.38l-2.182,2.184l0.39,0.391c0.74,0.741,1.148,1.726,1.148,2.778
		c0,1.052-0.408,2.038-1.148,2.778L16.511,21.8c-0.74,0.739-1.727,1.149-2.778,1.149c-1.053,0-2.037-0.41-2.778-1.149l-0.391-0.389
		l-2.185,2.18c-0.272,0.273-0.627,0.41-0.985,0.41c-0.356,0-0.711-0.137-0.985-0.41c-0.546-0.543-0.546-1.424,0-1.972l2.181-2.182
		l-0.389-0.391c-0.74-0.741-1.149-1.729-1.149-2.778c0-1.052,0.409-2.037,1.149-2.779l5.289-5.291c1.481-1.48,4.076-1.48,5.556,0
		l0.392,0.392l2.181-2.183c0.545-0.546,1.429-0.546,1.974,0C24.137,6.954,24.137,7.835,23.592,8.38"/>
	<path clip-path="url(#SVGID_2_)" fill="#2A6469" d="M19.438,12.538l-0.916,0.913c-0.272,0.272-0.628,0.408-0.986,0.408
		c-0.357,0-0.713-0.136-0.985-0.408c-0.545-0.544-0.545-1.427,0-1.974l0.914-0.914l-0.39-0.39c-0.213-0.213-0.499-0.328-0.806-0.328
		c-0.308,0-0.594,0.115-0.808,0.328l-5.289,5.288c-0.213,0.213-0.329,0.501-0.329,0.808c0,0.304,0.116,0.592,0.329,0.805
		l0.391,0.391l0.916-0.916c0.272-0.271,0.628-0.405,0.985-0.405c0.359,0,0.714,0.134,0.987,0.405c0.545,0.547,0.545,1.429,0,1.974
		l-0.914,0.916l0.389,0.392c0.213,0.213,0.509,0.319,0.806,0.319c0.298,0,0.594-0.106,0.808-0.319l5.288-5.291
		c0.213-0.213,0.329-0.501,0.329-0.806c0-0.305-0.116-0.593-0.329-0.806L19.438,12.538z"/>
</g>
</svg>
