<?xml version="1.0" encoding="utf-8"?>
<!-- Generator: Adobe Illustrator 15.0.0, SVG Export Plug-In . SVG Version: 6.00 Build 0)  -->
<!DOCTYPE svg PUBLIC "-//W3C//DTD SVG 1.1//EN" "http://www.w3.org/Graphics/SVG/1.1/DTD/svg11.dtd">
<svg version="1.1" id="Layer_2" xmlns="http://www.w3.org/2000/svg" xmlns:xlink="http://www.w3.org/1999/xlink" x="0px" y="0px"
	 width="30px" height="30px" viewBox="0 0 30 30" enable-background="new 0 0 30 30" xml:space="preserve">
<g>
	<defs>
		<rect id="SVGID_1_" width="30" height="30"/>
	</defs>
	<clipPath id="SVGID_2_">
		<use xlink:href="#SVGID_1_"  overflow="visible"/>
	</clipPath>
	<path clip-path="url(#SVGID_2_)" fill="#EE203B" d="M30,27c0,1.657-1.344,3-3,3H3c-1.656,0-3-1.343-3-3V3c0-1.656,1.344-3,3-3h24
		c1.656,0,3,1.344,3,3V27z"/>
	<path clip-path="url(#SVGID_2_)" fill="#FFFFFF" d="M11.983,7H7v16h4.983c0,0,3.017-1.077,3.017-4.044v-8.901
		C15,8.077,12.973,7,11.983,7 M12,20h-2V10h2V20z"/>
	<path clip-path="url(#SVGID_2_)" fill="#FFFFFF" d="M23.948,20.089v2.768h-6.874l0.002-2.132c1.992-3.971,3.177-6.43,3.554-7.374
		c0.376-0.944,0.563-1.68,0.563-2.21c0-0.406-0.058-0.708-0.171-0.909c-0.113-0.198-0.287-0.3-0.519-0.3
		c-0.233,0-0.405,0.112-0.52,0.333c-0.113,0.22-0.17,0.662-0.17,1.318v0.206h-2.74v0.671c0-0.835,0.035-1.494,0.104-1.978
		c0.073-0.483,0.247-0.958,0.524-1.426c0.277-0.467,0.64-0.82,1.083-1.06c0.444-0.24,0.976-0.359,1.596-0.359
		c1.216,0,2.136,0.367,2.761,1.101c0.622,0.735,0.933,1.664,0.933,2.791c0,0.855-0.176,1.758-0.525,2.712
		c-0.351,0.954-1.385,2.755-3.099,5.848H23.948z"/>
</g>
</svg>
